<svg width="19" height="13" viewBox="0 0 19 13" fill="none" xmlns="http://www.w3.org/2000/svg">
<path d="M6.88329 12.7511C7.21987 12.4126 7.21987 11.8506 6.88989 11.5053L2.87739 7.38221L18.1487 7.38221C18.6172 7.38221 19 6.98953 19 6.50207C19 6.0146 18.6172 5.62193 18.1487 5.62193L2.88399 5.62193L6.89649 1.49879C7.22647 1.1535 7.21987 0.598336 6.88989 0.253049C6.55332 -0.0854683 6.01876 -0.0854702 5.68218 0.259817L0.244181 5.8792C0.171585 5.96044 0.11219 6.04846 0.0659943 6.15678C0.0197983 6.26511 0 6.3802 0 6.4953C0 6.72549 0.0857925 6.94214 0.244181 7.1114L5.68218 12.7308C6.00556 13.0828 6.54672 13.0896 6.88329 12.7511Z" fill="white"/>
</svg>
